<svg xmlns="http://www.w3.org/2000/svg" width="400" height="400" viewBox="0 0 400 NaN" fill-rule="evenodd" xmlns:v="https://vecta.io/nano">
  <path d="M196.7 49.886c-.11.045-21.08.136-46.6.202l-57.6.742c-2.315.603-5.331 2.124-7.2 3.631-1.685 1.359-4.794
  4.582-6.961 7.215-.352.427-.846.99-1.098 1.25s-.417.474-.366.474-.25.357-.669.794c-.725.754-2.762 3.211-4.876
  5.881-.534.674-1.035 1.27-1.115 1.325s-1.121 1.315-2.314 2.8l-3.285 4.021L61 82.6l-3.2 3.903c-.385.465-.88
  1.098-1.1 1.408s-.588.794-.818 1.076c-.623.765-2.14 3.349-2.766 4.713l-.926 2c-.522 1.117-1.804 4.7-1.682
  4.7.056 0-.032.203-.195.452-.322.492-.358 218.855-.036 221.448.319 2.568 1.737 6.973 3.025 9.4 1.496 2.815
  2.828 4.9 3.131 4.9.092 0 .167.098.167.218 0 .491 2.95 3.766 4.49 4.985.624.493 1.421 1.152 1.772 1.464s.9.704
  1.219.872.761.471.981.675c.997.929 7.434 3.789 9.638 4.282.22.049 1.075.272 1.9.494 1.596.43 229.371.629 241.7.211
  6.373-.216 8.499-.717 13.6-3.207 1.523-.744 4.7-2.783 4.7-3.017 0-.097.122-.177.272-.177.386 0 4.331-3.79 5.742-5.517
  3.68-4.503 6.226-10.038 7.031-15.283.171-1.114.245-29.738.287-111.347l.057-109.848-.986-2.698c-1.054-2.881-2.251-5.493-3.175-6.926l-3.099-4.681-1.837-2.35c-.835-1.072-1.596-1.95-1.692-1.95s-.225-.158-.288-.35-.484-.755-.935-1.25a49.56 49.56
   0 0 1-1.548-1.8c-.401-.495-.824-.99-.94-1.1s-.595-.712-1.064-1.337-1.054-1.345-1.298-1.6-.753-.868-1.131-1.363-.735-.945-.796-1-.421-.505-.8-1c-.759-.991-1.608-2.029-3.663-4.477l-2-2.401c-8.202-10.014-14.106-14.42-19.837-14.803-3.467-.232-107.669-.648-108.2-.433m98
   17.224c4.354.134 5.5.386 5.5 1.21 0 .086.339.477.753.868s.95.965 1.19 1.275 1.723 1.922 3.296 3.583l6.661
    7.067 1.187 1.263.588.624H200.027 86.18l.56-.75a19.92 19.92 0 0 1 .923-1.15c.2-.22.74-.894 1.2-1.498a36 36
    0 0 1 1.405-1.734c.312-.35.549-.666.527-.702s.335-.471.793-.966.983-1.148 1.166-1.45.403-.55.489-.55.157-.135.157-.3.075-.3.166-.3.699-.688 1.35-1.528
    1.435-1.809 1.743-2.15a34.68 34.68 0 0 0 1.5-1.888l.941-1.266 96.1.119 99.5.223m-61.5 116.491v16.8l28.63-.004
    28.707.074c.043.042-.966 1.101-2.242 2.353s-4.039 4.076-6.141 6.276-3.897 3.978-3.988 3.95-.143.055-.116.184-.152.339-.399.468-.389.293-.316.366.004.141-.152.153-1.858
    1.672-3.783 3.69-3.607 3.674-3.738 3.679-.303.114-.381.241c-.089.143-.055.177.088.088.377-.233.263-.009-.203.4-.239.21-.369.269-.289.131.337-.575-.09-.152-1.483 1.471-.813.946-1.689
    1.801-1.948 1.899s-.414.269-.346.38-.017.2-.188.2-.312.069-.312.154c0 .273-2.693 2.945-2.9 2.877-.11-.035-.132.003-.05.086.187.187-.419.883-.769.883a.53.53
    0 0 0-.4.231c-.095.153-.054.176.119.069s.214-.084.119.069c-.078.127-.256.231-.395.231s-.516.335-.838.746c-.81
    1.03-1.686 1.944-1.686 1.759 0-.085-.134-.043-.298.093s-.245.333-.18.438-.07.24-.3.3-.395.167-.367.237c.055.139-2.401
    2.587-2.62 2.612-.074.008-.139.128-.144.265s-.14.22-.3.183-.224 0-.143.082c.193.192-.238.715-.471.571-.097-.06-.177.017-.177.172
    0 .445-1.706 2.223-1.975 2.058-.129-.08-.222-.072-.206.019.085.492-.044.698-.363.576-.189-.073-.279-.067-.199.012.182.183-.432.877-.776.877a.53.53
    0 0 0-.4.231c-.097.157-.053.176.138.062.241-.145.241-.12.002.173-.153.189-.314.308-.358.264s-1.088.966-2.321 2.243-2.309
    2.301-2.392 2.275-.129.02-.104.102c.076.243-.709 1.072-1.196 1.263-.247.098-.45.314-.45.482s-.108.305-.239.305c-.239
    0-1.359.975-1.363 1.187-.006.251-4.912 5.108-5.098 5.046-.11-.036-.132.001-.05.084.207.207-.454.904-.708.747-.112-.069-.148-.036-.08.074.16.26-.937
    1.316-1.158 1.115-.092-.084-.111-.053-.041.07s-.071.393-.314.6c-.437.372-.438.372-.152-.023.16-.22-.637.568-1.771 1.75s-2.437 2.478-2.894
    2.879-.697.657-.532.569.04.12-.278.462-.674.603-.791.581-.221.094-.231.259-.133.275-.274.245-.209.02-.153.112c.097.156-1.009 1.339-1.258
    1.346-.301.008-.607.348-.487.542.08.13.041.159-.099.073-.132-.081-.288.002-.361.193s-.543.709-1.049 1.163c-2.149 1.931-3.819 3.611-3.819
    3.842 0 .137-.277.481-.615.766s-.55.518-.469.518-.017.18-.216.4-.488.4-.643.4-.24.068-.189.15-.14.323-.422.534-.438.265-.348.119c.109-.176.087-.217-.067-.122-.127.078-.231.287-.231.464s-.063.259-.14.181c-.162-.162-5.26 4.86-5.26 5.182
    0 .339-1.308 1.516-1.495 1.346-.093-.085-.111-.052-.039.073s-.004.339-.168.475-.298.187-.298.115-.126-.017-.279.125-.238.326-.188.408.011.15-.086.15-1.925
    1.697-4.061 3.772c-3.374 3.279-3.915 3.73-4.128 3.45-.135-.177-.248-.241-.252-.143s-.215-.046-.471-.322a6.47
    6.47 0 0 0-1-.852c-.523-.343-.78-.869-.285-.585.145.084.18.068.083-.038-.091-.1-.214-.182-.273-.182s-1.221-1.136-2.584-2.524-2.476-2.48-2.476-2.425-.134-.013-.298-.149-.249-.326-.189-.422-.014-.129-.164-.071c-.306.117-1.422-1.029-1.259-1.293.058-.094-.051-.293-.242-.443-.322-.252-.325-.244-.048.118.165.215-1.05-.986-2.7-2.669s-3.03-3.141-3.067-3.241-.198-.181-.359-.181c-.309 0-3.294-2.925-3.227-3.162.031-.107-2.727-2.853-5.587-5.563-.133-.125-.178-.298-.1-.383s.029-.092-.107-.014c-.332.191-3.136-2.581-2.937-2.903.085-.138.06-.184-.058-.111s-.374-.067-.581-.303-.26-.361-.118-.278-.609-.689-1.669-1.716-2.056-1.94-2.213-2.029-.232-.249-.166-.355 0-.168-.146-.138-.24-.064-.21-.21-.042-.205-.164-.13c-.302.187-2.264-1.825-2.076-2.129.085-.137.062-.185-.054-.114-.163.101-1.119-.742-1.035-.913.013-.027-1.495-1.529-3.351-3.339-4.121-4.016-3.857-3.75-3.375-3.4.37.268.379.263.126-.06-.151-.193-.381-.35-.511-.35-.299 0-1.413-1.176-1.591-1.679-.073-.208-.178-.333-.233-.279-.092.092-2.746-2.551-3.608-3.592-.204-.247-.487-.45-.627-.45s-.256-.13-.256-.288a.56.56 0 0 0-.231-.431c-.156-.097-.177-.052-.064.138.092.155-.141-.017-.519-.381s-.686-.769-.686-.9-.09-.239-.2-.241c-.322-.004-1.297-.941-1.178-1.132.059-.096.034-.151-.057-.123-.181.058-7.657-7.449-7.662-7.692-.002-.082-.143-.15-.315-.15s-.256-.09-.188-.2-.008-.2-.169-.2-1.014-.803-1.895-1.784-1.64-1.746-1.687-1.699-.257-.116-.467-.362c-.378-.444-.378-.445.018-.152.37.275.38.271.126-.053-.151-.193-.383-.35-.516-.35-.249 0-1.153-.864-1.062-1.015.029-.047-.477-.613-1.124-1.258s-1.103-1.055-1.014-.911c.256.415-1.069-.59-1.398-1.06-.162-.231-.24-.51-.173-.619s.021-.136-.11-.055-.278.025-.334-.119-4.558-4.754-10.003-10.242l-9.829-10.051c.04-.039 12.956-.071 28.704-.071H166.8v-16.8V166.8H200h33.2v16.801" fill="#444c54"/><path d="M127.05 50.146a8.74 8.74 0 0 0 1.5 0c.413-.043.075-.079-.75-.079s-1.162.036-.75.079m163.1-.005a2.83 2.83 0 0 0 .9 0c.248-.048.045-.087-.45-.087s-.697.039-.45.087m-35.4 16.808h4.1c1.128-.035.205-.065-2.05-.065l-2.05.065M50.057 102.3c.002.55.041.751.087.447s.044-.754-.003-1-.085.003-.084.553m299.797.9c0 .495.039.697.087.45a2.83 2.83 0 0 0 0-.9c-.048-.247-.087-.045-.087.45M112.8 204.1l1.186 1.1c.055 0-.389-.495-.986-1.1l-1.186-1.1c-.055 0 .389.495.986 1.1m5.1 5.1l1.287 1.2c.055 0-.434-.54-1.087-1.2l-1.287-1.2c-.055 0 .434.54 1.087 1.2m160.315 3.707c-.476.491-.782.893-.681.893.245 0 1.767-1.565 1.643-1.689-.053-.054-.486.305-.962.796m-8.008 8.02c-.381.37-.602.673-.489.673s.509-.315.882-.7c.865-.892.529-.869-.393.027m-141.007-.445c0 .273 1.059 1.533 1.629 1.939.859.611.693.314-.529-.948-.605-.624-1.1-1.07-1.1-.991m136.769 4.718c-.346.33-.542.6-.436.6s.451-.27.767-.6.512-.6.436-.6-.422.27-.767.6m-132.169.1c.258.275.543.5.634.5s-.032-.225-.271-.5-.525-.5-.634-.5.013.225.271.5m3.4 3.248c0 .244 1.572 1.747 1.697 1.622.057-.057-.301-.484-.797-.948s-.9-.767-.9-.674m124.34 1.061c-.41.435-.671.791-.582.791.227 0 1.536-1.372 1.421-1.488-.052-.052-.429.262-.839.697m-3.306 3.255c-.619.658-.538.849.106.251.298-.275.493-.549.434-.607s-.301.102-.54.356m-111.106 5.727l2.776 2.609c-.262-.448-3.979-4.197-4.163-4.199-.087 0 .537.715 1.387 1.59m106.188-.78c-.211.213-.339.432-.284.487s.311-.124.569-.399c.546-.581.285-.662-.285-.088m-2.372 2.389c-.963.99-1.673 1.8-1.577 1.8.257 0 3.433-3.13 3.433-3.384 0-.327.017-.341-1.856 1.584M155 246.384c0 .19 1.377 1.509 1.463 1.402.038-.047-.275-.413-.697-.813s-.766-.664-.766-.589m88.489 1.316c-.502.495-.84.898-.751.896.199-.005 1.997-1.796 1.803-1.796-.076 0-.549.405-1.052.9m-86.545.715c.245.254.495.412.557.351s-.139-.27-.445-.463l-.556-.351.444.463m77.949 7.846c-2.349 2.415-2.472 2.74-.188.497l1.88-2.04c-.053-.053-.815.641-1.692 1.543m-70.859-.711c1.1 1.238 3.217 3.264 3.656 3.497.225.119-.588-.787-1.807-2.015-2.146-2.161-3.209-3.012-1.849-1.482m8.231 8.3c.604.688 1.481 1.565 1.95 1.95s1.033.903 1.254 1.15.493.45.603.45-.887-1.08-2.215-2.4c-2.637-2.621-3.316-3.111-1.592-1.15m53.998 1.055c-.836.828-1.484 1.541-1.439 1.585s.799-.633 1.678-1.505 1.527-1.585 1.439-1.585-.843.677-1.678 1.505m-45.055 7.845c.849.976 2.641 2.65 2.837 2.65.105 0-.515-.719-1.377-1.598-1.483-1.512-2.491-2.238-1.46-1.052m36.226.929c-1.457 1.502-1.822 2.031-.955 1.38.264-.197.439-.427.389-.509s.035-.15.189-.15.444-.18.643-.4.302-.4.228-.4.16-.263.519-.583.6-.636.536-.7-.761.549-1.549 1.362m-27.583 7.664c.786.952 2.398 2.475 2.505 2.368.101-.101-2.654-2.911-2.853-2.911-.055 0 .102.245.348.543m19.459.467c-.529.552-.923 1.044-.874 1.093s.527-.358 1.064-.903.93-1.037.874-1.093-.535.351-1.064.903m-3.117 3.14l-1.093 1.15 1.15-1.093 1.15-1.15c0-.149-.191.025-1.207 1.093m-8.809 4.02c.126.236.303.43.392.43s.491.319.893.71.731.652.731.582c0-.198-1.035-1.271-1.673-1.735l-.573-.417.23.43m115.066 60.968c.193.05.507.05.7 0s.035-.092-.35-.092-.543.042-.35.092" fill="#ff0"/></svg>